G04*
G04 #@! TF.GenerationSoftware,Altium Limited,Altium Designer,26.7.1 (11)*
G04*
G04 Layer_Color=32896*
G04 Board_Origin=62992126|31496063*
%FSLAX44Y44*%
%MOMM*%
G71*
G04*
G04 #@! TF.SameCoordinates,9779A64B-EE5B-4716-AD55-FFABCA96B736*
G04*
G04*
G04 #@! TF.FilePolarity,Positive*
G04*
G01*
G75*
%ADD10C,0.2000*%
%ADD11C,0.2540*%
%ADD12R,1.4000X0.4000*%
D10*
X170000Y158500D02*
X190000D01*
X170000Y120500D02*
Y158500D01*
Y120500D02*
X190000D01*
Y158500D01*
X173000Y55000D02*
Y86000D01*
X187000D01*
Y55000D02*
Y86000D01*
X173000Y55000D02*
X187000D01*
D11*
X192696Y167383D02*
Y182617D01*
X185078D01*
X182539Y180078D01*
Y175000D01*
X185078Y172461D01*
X192696D01*
X187617D02*
X182539Y167383D01*
X167304D02*
X177461D01*
X167304Y177539D01*
Y180078D01*
X169843Y182617D01*
X174922D01*
X177461Y180078D01*
X192696Y47618D02*
Y32383D01*
X185078D01*
X182539Y34922D01*
Y45078D01*
X185078Y47618D01*
X192696D01*
X167304Y32383D02*
X177461D01*
X167304Y42539D01*
Y45078D01*
X169843Y47618D01*
X174922D01*
X177461Y45078D01*
D12*
X180000Y57001D02*
D03*
M02*
